{
	"asset":{
		"generator":"Khronos glTF Blender I/O v4.3.47",
		"version":"2.0"
	},
	"scene":0,
	"scenes":[
		{
			"extras":{
				"vr_landmarks":[
					{
						"type":0,
						"base_scale":1.0
					}
				],
				"BSBST_settings":{
					"preset_object":{},
					"edit_toggle":0
				}
			},
			"name":"Scene",
			"nodes":[
				0
			]
		}
	],
	"nodes":[
		{
			"mesh":0,
			"name":"Cube"
		}
	],
	"materials":[
		{
			"doubleSided":true,
			"name":"Piel",
			"pbrMetallicRoughness":{
				"baseColorFactor":[
					0.8000858426094055,
					0.566728949546814,
					0.41385871171951294,
					1
				],
				"metallicFactor":0,
				"roughnessFactor":0.5
			}
		},
		{
			"doubleSided":true,
			"name":"Labios",
			"pbrMetallicRoughness":{
				"baseColorFactor":[
					0.8001648187637329,
					0.27426648139953613,
					0.18910621106624603,
					1
				],
				"metallicFactor":0,
				"roughnessFactor":0.5
			}
		},
		{
			"doubleSided":true,
			"name":"wire",
			"pbrMetallicRoughness":{
				"baseColorFactor":[
					0.0004891655989922583,
					0.0004891655989922583,
					0.0004891655989922583,
					1
				],
				"metallicFactor":0,
				"roughnessFactor":0.5
			}
		}
	],
	"meshes":[
		{
			"name":"Cube.001",
			"primitives":[
				{
					"attributes":{
						"POSITION":0,
						"NORMAL":1,
						"TEXCOORD_0":2
					},
					"indices":3,
					"material":0
				},
				{
					"attributes":{
						"POSITION":4,
						"NORMAL":5,
						"TEXCOORD_0":6
					},
					"indices":7,
					"material":1
				},
				{
					"attributes":{
						"POSITION":8,
						"NORMAL":9,
						"TEXCOORD_0":10
					},
					"indices":11,
					"material":2
				}
			]
		}
	],
	"accessors":[
		{
			"bufferView":0,
			"componentType":5126,
			"count":17780,
			"max":[
				0.2838723957538605,
				1.9533811807632446,
				0.7250779271125793
			],
			"min":[
				-0.4912795424461365,
				-1.9231226444244385,
				-0.7250779271125793
			],
			"type":"VEC3"
		},
		{
			"bufferView":1,
			"componentType":5126,
			"count":17780,
			"type":"VEC3"
		},
		{
			"bufferView":2,
			"componentType":5126,
			"count":17780,
			"type":"VEC2"
		},
		{
			"bufferView":3,
			"componentType":5123,
			"count":26676,
			"type":"SCALAR"
		},
		{
			"bufferView":4,
			"componentType":5126,
			"count":336,
			"max":[
				-0.3542507290840149,
				1.5723164081573486,
				0.056382715702056885
			],
			"min":[
				-0.38232383131980896,
				1.537888526916504,
				-0.056382715702056885
			],
			"type":"VEC3"
		},
		{
			"bufferView":5,
			"componentType":5126,
			"count":336,
			"type":"VEC3"
		},
		{
			"bufferView":6,
			"componentType":5126,
			"count":336,
			"type":"VEC2"
		},
		{
			"bufferView":7,
			"componentType":5123,
			"count":504,
			"type":"SCALAR"
		},
		{
			"bufferView":8,
			"componentType":5126,
			"count":144959,
			"max":[
				0.28586089611053467,
				1.9553730487823486,
				0.7270629405975342
			],
			"min":[
				-0.49313119053840637,
				-1.9247502088546753,
				-0.7270629405975342
			],
			"type":"VEC3"
		},
		{
			"bufferView":9,
			"componentType":5126,
			"count":144959,
			"type":"VEC3"
		},
		{
			"bufferView":10,
			"componentType":5126,
			"count":144959,
			"type":"VEC2"
		},
		{
			"bufferView":11,
			"componentType":5125,
			"count":217440,
			"type":"SCALAR"
		}
	],
	"bufferViews":[
		{
			"buffer":0,
			"byteLength":213360,
			"byteOffset":0,
			"target":34962
		},
		{
			"buffer":0,
			"byteLength":213360,
			"byteOffset":213360,
			"target":34962
		},
		{
			"buffer":0,
			"byteLength":142240,
			"byteOffset":426720,
			"target":34962
		},
		{
			"buffer":0,
			"byteLength":53352,
			"byteOffset":568960,
			"target":34963
		},
		{
			"buffer":0,
			"byteLength":4032,
			"byteOffset":622312,
			"target":34962
		},
		{
			"buffer":0,
			"byteLength":4032,
			"byteOffset":626344,
			"target":34962
		},
		{
			"buffer":0,
			"byteLength":2688,
			"byteOffset":630376,
			"target":34962
		},
		{
			"buffer":0,
			"byteLength":1008,
			"byteOffset":633064,
			"target":34963
		},
		{
			"buffer":0,
			"byteLength":1739508,
			"byteOffset":634072,
			"target":34962
		},
		{
			"buffer":0,
			"byteLength":1739508,
			"byteOffset":2373580,
			"target":34962
		},
		{
			"buffer":0,
			"byteLength":1159672,
			"byteOffset":4113088,
			"target":34962
		},
		{
			"buffer":0,
			"byteLength":869760,
			"byteOffset":5272760,
			"target":34963
		}
	],
	"buffers":[
		{
			"byteLength":6142520,
			"uri":"avatar.bin"
		}
	]
}
